<?xml version="1.0" ?><svg height="467.38101" id="svg24" version="1.1" viewBox="0 0 467.39801 467.38101" width="467.39801" xml:space="preserve" xmlns="http://www.w3.org/2000/svg" xmlns:cc="http://creativecommons.org/ns#" xmlns:dc="http://purl.org/dc/elements/1.1/" xmlns:inkscape="http://www.inkscape.org/namespaces/inkscape" xmlns:rdf="http://www.w3.org/1999/02/22-rdf-syntax-ns#" xmlns:sodipodi="http://sodipodi.sourceforge.net/DTD/sodipodi-0.dtd" xmlns:svg="http://www.w3.org/2000/svg"><defs id="defs28"/><g id="mail_icon" transform="translate(-22.301,-22.31)"><g id="g20"><path d="m 256.001,22.31 c 129.121,0 233.698,104.567 233.698,233.686 0,129.123 -104.577,233.695 -233.698,233.695 -129.118,0 -233.7,-104.572 -233.7,-233.695 0,-129.119 104.582,-233.686 233.7,-233.686 z" id="path4" style="clip-rule:evenodd;fill:#4b4b55;fill-rule:evenodd"/><path d="m 489.699,258.353 c -1.012,116.01 -86.75,211.841 -198.046,228.651 L 133.94,352.838 c 0,-63.546 3.035,-124.748 3.035,-188.636 l 244.109,-2.691 c 7.731,9.075 107.604,96.842 108.615,96.842 z" id="path6" style="clip-rule:evenodd;fill:#3d3d45;fill-rule:evenodd"/><path d="m 133.94,352.838 h 181.237 c -4.361,-7.396 -6.719,-16.139 -6.719,-25.219 0,-27.91 22.189,-50.433 50.094,-50.433 8.074,0 15.805,2.019 22.532,5.712 V 161.51 H 133.94 Z" id="path8" style="clip-rule:evenodd;fill:#daeaef;fill-rule:evenodd"/><path d="M 315.178,302.066 133.94,161.51 h 247.145 v 121.388 c -6.728,-3.693 -14.458,-5.712 -22.532,-5.712 -18.486,0.001 -34.623,10.084 -43.375,24.88 z" id="path10" style="clip-rule:evenodd;fill:#c7e0e5;fill-rule:evenodd"/><path d="m 321.572,293.324 -45.055,-45.393 c -10.756,-10.76 -27.917,-10.76 -38.673,0 L 133.94,352.838 h 181.237 c -4.361,-7.396 -6.719,-16.139 -6.719,-25.219 10e-4,-13.447 5.04,-25.219 13.114,-34.295 z" id="path12" style="clip-rule:evenodd;fill:#e8f9fc;fill-rule:evenodd"/><path d="m 276.518,247.931 c -10.756,-10.76 -27.917,-10.76 -38.673,0 l -17.488,17.818 17.488,17.488 c 10.756,10.76 27.917,10.76 38.673,0 l 17.474,-17.488 z" id="path14" style="clip-rule:evenodd;fill:#d1eff2;fill-rule:evenodd"/><path d="m 133.94,161.51 104.238,104.912 c 10.761,10.765 27.907,10.765 38.673,0 L 381.085,161.51 Z" id="path16" style="clip-rule:evenodd;fill:#ffffff;fill-rule:evenodd"/><path d="m 362.934,343.089 c -2.023,2.019 -4.037,3.693 -6.061,5.048 -2.348,1.342 -4.705,2.014 -7.062,2.014 -2.348,0 -5.03,-0.672 -7.387,-2.352 -2.357,-1.351 -4.381,-3.698 -5.727,-6.733 -1.68,-3.021 -2.348,-6.39 -2.348,-10.078 0,-4.375 1.346,-9.09 3.359,-13.456 2.357,-4.705 5.383,-8.073 8.742,-10.421 3.359,-2.019 6.728,-3.369 10.087,-3.369 2.357,0 4.705,0.683 7.053,2.023 2.367,1.346 4.047,3.364 5.727,6.05 l 1.68,-6.723 h 7.396 l -6.05,28.578 c -1.003,4.041 -1.346,6.055 -1.346,6.723 0,0.673 0.343,1.346 1.012,1.689 0.334,0.668 1.345,1.007 2.013,1.007 1.346,0 3.369,-1.007 6.061,-2.696 3.025,-2.348 5.707,-5.373 7.396,-9.071 2.014,-3.702 3.024,-7.734 3.024,-11.767 0,-4.715 -1.345,-9.081 -3.692,-13.122 -2.357,-4.366 -6.061,-7.392 -10.775,-10.083 -5.038,-2.353 -10.077,-3.698 -16.128,-3.698 -6.729,0 -12.779,1.68 -18.161,4.705 -5.383,3.03 -9.744,7.735 -12.778,13.456 -3.025,5.712 -4.705,12.102 -4.705,18.486 0,7.062 1.68,13.122 4.705,18.161 3.034,5.044 7.396,8.746 13.112,11.094 5.717,2.357 12.11,3.369 18.829,3.369 7.73,0 13.79,-1.012 18.839,-3.703 5.039,-2.353 8.732,-5.382 11.424,-9.075 h 7.739 c -1.68,3.02 -4.037,6.055 -7.739,9.075 -3.359,3.025 -7.73,5.717 -12.436,7.396 -4.715,1.685 -10.765,2.696 -17.493,2.696 -6.385,0 -12.102,-0.678 -17.483,-2.362 -5.373,-1.675 -9.744,-4.027 -13.447,-7.396 -4.036,-3.025 -6.728,-7.062 -8.741,-11.094 -2.357,-5.378 -3.369,-11.1 -3.369,-17.483 0,-6.724 1.355,-13.452 4.037,-19.503 3.703,-7.734 8.408,-13.79 14.792,-17.822 6.395,-4.036 14.124,-6.05 23.2,-6.05 7.072,0 13.456,1.34 19.173,4.365 5.383,2.691 10.088,7.067 13.112,12.774 2.691,5.048 4.381,10.097 4.381,16.147 0,8.064 -3.035,15.47 -8.751,21.85 -5.383,5.722 -10.756,8.412 -17.149,8.412 -1.68,0 -3.359,-0.334 -4.705,-0.672 -1.012,-0.673 -2.014,-1.68 -2.701,-2.696 -0.325,-0.673 -0.659,-2.013 -0.659,-3.693 z M 342.425,331.66 c 0,3.698 0.668,6.724 2.69,9.071 1.671,2.019 4.027,3.03 6.385,3.03 1.346,0 3.025,-0.339 5.039,-1.341 1.689,-1.017 3.369,-2.362 5.049,-4.376 1.346,-1.685 2.691,-4.041 3.693,-7.058 1.012,-2.7 1.68,-5.721 1.68,-8.746 0,-3.703 -1.002,-6.724 -3.025,-8.747 -1.68,-2.348 -4.027,-3.354 -7.063,-3.354 -1.68,0 -3.359,0.673 -5.039,1.341 -1.688,1.012 -3.025,2.357 -4.705,4.705 -1.345,2.019 -2.7,4.376 -3.368,7.401 -1.012,2.692 -1.336,5.379 -1.336,8.074 z" id="path18" style="fill:#ffffff"/></g></g><g id="Layer_1" transform="translate(-22.301,-22.31)"/></svg>