<?xml version="1.0" ?><!DOCTYPE svg  PUBLIC '-//W3C//DTD SVG 1.1//EN'  'http://www.w3.org/Graphics/SVG/1.1/DTD/svg11.dtd'><svg width="30px" height="30px" enable-background="new 0 0 135 134.105" id="Layer_1" version="1.1" viewBox="0 0 135 134.105" xml:space="preserve" xmlns="http://www.w3.org/2000/svg" xmlns:xlink="http://www.w3.org/1999/xlink"><g><g><g><g><circle cx="67.5" cy="67.054" fill="#4B87C7" r="63.333"/></g></g><g><g><g><path d="M112.283,22.269c24.732,24.733,24.734,64.833,0,89.567c-24.732,24.732-64.834,24.732-89.566-0.001       L112.283,22.269z" fill="#3D80B3"/></g></g></g><g><path d="M127.818,86.38c0.232-0.724,0.443-1.458,0.65-2.193C128.262,84.924,128.045,85.655,127.818,86.38z" fill="#4B87C7"/><polygon fill="#387BA5" points="128.473,84.174 128.473,84.174 128.469,84.188    "/><path d="M128.473,84.174l-34.31-34.309l-7.804,7.804l-5.426-5.425l-4.529,4.529L49.883,30.251l-1.646-0.627     L38.061,39.801l12.285,12.284L38.32,64.109l11.744,11.744L37.223,88.695l40.84,40.797c23.513-3.95,42.626-20.844,49.756-43.112     c0.227-0.725,0.443-1.456,0.65-2.193C128.469,84.183,128.471,84.178,128.473,84.174z" fill="#387BA5"/></g></g><path d="M100.002,65.316v23.487H86.387V66.889c0-5.504-1.971-9.262-6.898-9.262   c-3.764,0-6.002,2.533-6.988,4.981c-0.359,0.875-0.451,2.094-0.451,3.319v22.875H58.431c0,0,0.183-37.116,0-40.959h13.618v5.804   c-0.026,0.044-0.063,0.091-0.088,0.133h0.088v-0.133c1.809-2.786,5.041-6.768,12.273-6.768   C93.285,46.881,100.002,52.735,100.002,65.316z M44.182,28.099c-4.659,0-7.707,3.057-7.707,7.075c0,3.933,2.959,7.081,7.527,7.081   h0.091c4.749,0,7.703-3.148,7.703-7.081C51.707,31.156,48.842,28.099,44.182,28.099z M37.283,88.804h13.615V47.845H37.283V88.804z" fill="#FFFFFF" id="LinkedIn_3_"/></g></svg>
